<?xml version="1.0" standalone="no"?><!DOCTYPE svg PUBLIC "-//W3C//DTD SVG 1.1//EN" "http://www.w3.org/Graphics/SVG/1.1/DTD/svg11.dtd"><svg t="1585230128735" class="icon" viewBox="0 0 1024 1024" version="1.1" xmlns="http://www.w3.org/2000/svg" p-id="926" xmlns:xlink="http://www.w3.org/1999/xlink" width="200" height="200"><defs><style type="text/css"></style></defs><path d="M511.793 834.901c-111.895 0-210.81-57.29-268.548-144.121 1.343-89.069 179.032-137.855 268.548-137.855 89.069 0 267.206 48.786 268.548 137.855-57.738 86.83-156.653 144.121-268.548 144.121z m0-635.565c74.298 0 134.274 59.976 134.274 134.274s-59.976 134.274-134.274 134.274-134.274-59.975-134.274-134.274 59.975-134.274 134.274-134.274z m0-134.274c-247.065 0-447.581 200.516-447.581 447.581s200.516 447.581 447.581 447.581 447.581-200.516 447.581-447.581S758.857 65.062 511.793 65.062z" fill="#666666" p-id="927"></path></svg>