<?xml version="1.0" encoding="utf-8"?>
<svg version="1.1" xmlns:xlink="http://www.w3.org/1999/xlink" width="130px" height="130px" xmlns="http://www.w3.org/2000/svg">
  <g transform="matrix(1 0 0 1 -789 -323 )">
    <path d="M 100.716145833333 54.1666666666667  C 100.716145833333 55.6336805555556  100.180121527778 56.9032118055556  99.1080729166667 57.9752604166667  L 63.3919270833333 93.69140625  C 62.3198784722222 94.7634548611111  61.0503472222222 95.2994791666667  59.5833333333333 95.2994791666667  C 58.1163194444445 95.2994791666667  56.8467881944445 94.7634548611111  55.7747395833333 93.69140625  L 30.8919270833333 68.80859375  C 29.8198784722222 67.7365451388889  29.2838541666667 66.4670138888889  29.2838541666667 65  C 29.2838541666667 63.5329861111111  29.8198784722222 62.2634548611111  30.8919270833333 61.19140625  L 39.5247395833333 52.55859375  C 40.5967881944445 51.4865451388889  41.8663194444445 50.9505208333333  43.3333333333333 50.9505208333333  C 44.8003472222222 50.9505208333333  46.0698784722222 51.4865451388889  47.1419270833333 52.55859375  L 59.5833333333333 65  L 82.8580729166667 41.7252604166667  C 83.9301215277778 40.6532118055556  85.1996527777778 40.1171875  86.6666666666667 40.1171875  C 88.1336805555556 40.1171875  89.4032118055556 40.6532118055556  90.4752604166667 41.7252604166667  L 99.1080729166667 50.3580729166667  C 100.180121527778 51.4301215277778  100.716145833333 52.6996527777778  100.716145833333 54.1666666666667  Z M 104.86328125 88.10546875  C 108.982204861111 81.0525173611111  111.041666666667 73.3506944444445  111.041666666667 65  C 111.041666666667 56.6493055555556  108.982204861111 48.9474826388889  104.86328125 41.89453125  C 100.744357638889 34.8415798611111  95.1584201388889 29.2556423611111  88.10546875 25.13671875  C 81.0525173611111 21.0177951388889  73.3506944444445 18.9583333333333  65 18.9583333333333  C 56.6493055555556 18.9583333333333  48.9474826388889 21.0177951388889  41.89453125 25.13671875  C 34.8415798611111 29.2556423611111  29.2556423611111 34.8415798611111  25.13671875 41.89453125  C 21.0177951388889 48.9474826388889  18.9583333333333 56.6493055555556  18.9583333333333 65  C 18.9583333333333 73.3506944444445  21.0177951388889 81.0525173611111  25.13671875 88.10546875  C 29.2556423611111 95.1584201388889  34.8415798611111 100.744357638889  41.89453125 104.86328125  C 48.9474826388889 108.982204861111  56.6493055555556 111.041666666667  65 111.041666666667  C 73.3506944444445 111.041666666667  81.0525173611111 108.982204861111  88.10546875 104.86328125  C 95.1584201388889 100.744357638889  100.744357638889 95.1584201388889  104.86328125 88.10546875  Z M 121.282552083333 32.373046875  C 127.094184027778 42.3318142361111  130 53.2074652777778  130 65  C 130 76.7925347222222  127.094184027778 87.6681857638889  121.282552083333 97.626953125  C 115.470920138889 107.585720486111  107.585720486111 115.470920138889  97.626953125 121.282552083333  C 87.6681857638889 127.094184027778  76.7925347222222 130  65 130  C 53.2074652777778 130  42.3318142361111 127.094184027778  32.373046875 121.282552083333  C 22.4142795138889 115.470920138889  14.5290798611111 107.585720486111  8.71744791666667 97.626953125  C 2.90581597222222 87.6681857638889  0 76.7925347222222  0 65  C 0 53.2074652777778  2.90581597222222 42.3318142361111  8.71744791666667 32.373046875  C 14.5290798611111 22.4142795138889  22.4142795138889 14.5290798611111  32.373046875 8.71744791666666  C 42.3318142361111 2.90581597222221  53.2074652777778 0  65 0  C 76.7925347222222 0  87.6681857638889 2.90581597222221  97.626953125 8.71744791666666  C 107.585720486111 14.5290798611111  115.470920138889 22.4142795138889  121.282552083333 32.373046875  Z " fill-rule="nonzero" fill="#70b603" stroke="none" transform="matrix(1 0 0 1 789 323 )" />
  </g>
</svg>