<?xml version="1.0" standalone="no"?><!DOCTYPE svg PUBLIC "-//W3C//DTD SVG 1.1//EN" "http://www.w3.org/Graphics/SVG/1.1/DTD/svg11.dtd"><svg t="1585423456353" class="icon" viewBox="0 0 1024 1024" version="1.1" xmlns="http://www.w3.org/2000/svg" p-id="18628" xmlns:xlink="http://www.w3.org/1999/xlink" width="200" height="200"><defs><style type="text/css"></style></defs><path d="M512 512m-480.0512 0a480.0512 480.0512 0 1 0 960.1024 0 480.0512 480.0512 0 1 0-960.1024 0Z" fill="#F0EEE2" p-id="18629"></path><path d="M512 736.0512c-158.208 0-292.0448 49.8688-336.384 118.3744 186.7776 183.5008 485.9904 183.5008 672.768 0-44.3392-68.608-178.176-118.3744-336.384-118.3744z m0-448.1024c158.208 0 292.0448-49.8688 336.384-118.3744-186.7776-183.5008-485.9904-183.5008-672.768 0 44.3392 68.608 178.176 118.3744 336.384 118.3744z" fill="#BBAA9C" p-id="18630"></path><path d="M192 688.0256H96.0512c-8.8064 0-15.9744 7.168-15.9744 15.9744s7.168 15.9744 15.9744 15.9744h96.0512c8.8064 0 15.9744-7.168 15.9744-15.9744s-7.2704-15.9744-16.0768-15.9744z m688.0256-96.0512h-31.9488c-8.8064 0-15.9744 7.168-15.9744 15.9744s7.168 15.9744 15.9744 15.9744h31.9488c8.8064 0 15.9744-7.168 15.9744-15.9744s-7.168-15.9744-15.9744-15.9744zM143.9744 415.9488h31.9488c8.8064 0 15.9744-7.168 15.9744-15.9744s-7.168-15.9744-15.9744-15.9744h-31.9488c-8.8064 0-15.9744 7.168-15.9744 15.9744s7.168 15.9744 15.9744 15.9744z m784.0768-128h-96.0512c-8.8064 0.2048-15.7696 7.5776-15.5648 16.384 0.2048 8.4992 7.0656 15.36 15.5648 15.5648h96.0512c8.8064-0.2048 15.7696-7.5776 15.5648-16.384-0.2048-8.3968-7.0656-15.2576-15.5648-15.5648zM496.0256 608.0512h-48.0256c-8.8064 0-15.9744 7.168-15.9744 15.9744s7.168 15.9744 15.9744 15.9744h48.0256c8.8064 0 15.9744-7.168 15.9744-15.9744s-7.168-15.9744-15.9744-15.9744z m256-176.0256h-96.0512c-8.8064 0.2048-15.7696 7.5776-15.5648 16.384 0.2048 8.4992 7.0656 15.36 15.5648 15.5648h96.0512c8.8064-0.2048 15.7696-7.5776 15.5648-16.384-0.2048-8.4992-7.0656-15.36-15.5648-15.5648z m-80.0768 399.9744h-64c-8.8064 0-15.9744 7.168-15.9744 15.9744s7.168 15.9744 15.9744 15.9744h64c8.8064 0 15.9744-7.168 15.9744-15.9744s-7.0656-15.9744-15.9744-15.9744z m-223.9488-640c0-8.8064-7.168-15.9744-15.9744-15.9744h-15.9744c-8.8064 0-15.9744 7.168-15.9744 15.9744s7.168 15.9744 15.9744 15.9744h15.9744c8.8064 0 15.9744-7.168 15.9744-15.9744z m0 607.9488c-8.8064 0-15.9744 7.168-15.9744 15.9744s7.168 15.9744 15.9744 15.9744 15.9744-7.168 15.9744-15.9744c0-8.704-7.168-15.872-15.9744-15.9744z" fill="#D8D5BA" p-id="18631"></path><path d="M512 0C229.2736 0 0 229.2736 0 512s229.2736 512 512 512 512-229.2736 512-512S794.7264 0 512 0z m447.6928 496.0256H767.8976c-1.4336-84.6848-14.6432-163.84-36.5568-231.8336 39.8336-15.5648 76.1856-35.1232 108.032-58.0608 73.8304 78.848 116.6336 181.8624 120.32 289.8944z m-431.7184 31.9488h207.872c-1.4336 81.1008-13.6192 156.7744-33.8944 221.3888-53.3504-17.408-112.128-27.648-173.9776-29.184V527.9744z m0-31.9488V303.8208c61.8496-1.536 120.6272-11.776 173.9776-29.184 20.2752 64.6144 32.4608 140.288 33.8944 221.3888h-207.872z m288.5632-312.5248c-29.7984 20.6848-61.952 37.6832-95.8464 50.688C695.296 167.0144 660.7872 112.64 620.6464 77.312c73.216 18.2272 140.5952 54.784 195.8912 106.1888z m-124.928 61.0304c-50.176 16.1792-105.472 25.8048-163.7376 27.3408V65.1264c67.072 9.4208 125.952 77.824 163.7376 179.4048z m-195.584-179.4048v206.6432c-58.2656-1.536-113.5616-11.1616-163.7376-27.2384 37.888-101.5808 96.768-169.984 163.7376-179.4048zM303.2064 234.1888c-33.8944-13.0048-66.048-30.0032-95.8464-50.688 55.296-51.4048 122.6752-87.8592 195.8912-106.1888-40.1408 35.328-74.5472 89.7024-100.0448 156.8768z m-118.4768-28.16c31.744 22.9376 68.1984 42.496 107.9296 58.0608-21.9136 68.096-35.1232 147.1488-36.5568 231.8336H64.3072c3.6864-107.9296 46.4896-210.944 120.4224-289.8944zM64.3072 527.9744h191.7952c1.4336 84.6848 14.6432 163.84 36.5568 231.8336-39.8336 15.5648-76.1856 35.1232-107.9296 58.0608-73.9328-78.848-116.736-181.8624-120.4224-289.8944z m143.1552 312.5248c29.7984-20.6848 61.952-37.6832 95.8464-50.688 25.4976 67.1744 59.904 121.5488 100.0448 156.8768-73.216-18.2272-140.5952-54.784-195.8912-106.1888z m288.5632 118.3744c-66.9696-9.4208-125.8496-77.824-163.7376-179.4048 50.176-16.1792 105.472-25.8048 163.7376-27.3408v206.7456z m0-238.6944c-61.8496 1.536-120.6272 11.776-173.9776 29.184-20.2752-64.6144-32.4608-140.288-33.8944-221.3888h207.872v192.2048z m-207.872-224.1536c1.4336-81.1008 13.6192-156.7744 33.8944-221.3888 53.3504 17.408 112.128 27.648 173.9776 29.184v192.2048h-207.872z m239.8208 462.848V752.2304c58.2656 1.536 113.5616 11.0592 163.7376 27.3408-37.888 101.4784-96.768 169.8816-163.7376 179.3024z m92.672-12.1856c40.1408-35.328 74.6496-89.7024 100.1472-156.8768 33.8944 13.0048 66.048 30.0032 95.8464 50.688-55.3984 51.4048-122.7776 87.9616-195.9936 106.1888z m218.624-128.7168c-31.744-22.9376-68.096-42.496-108.032-58.0608 21.9136-68.096 35.1232-147.1488 36.5568-231.8336h191.7952c-3.584 107.9296-46.3872 210.944-120.32 289.8944z" fill="#5F4E56" p-id="18632"></path></svg>