<?xml version="1.0" standalone="no"?><!DOCTYPE svg PUBLIC "-//W3C//DTD SVG 1.1//EN" "http://www.w3.org/Graphics/SVG/1.1/DTD/svg11.dtd"><svg t="1585903064419" class="icon" viewBox="0 0 1024 1024" version="1.1" xmlns="http://www.w3.org/2000/svg" p-id="2265" xmlns:xlink="http://www.w3.org/1999/xlink" width="200" height="200"><defs><style type="text/css"></style></defs><path d="M473.6 298.666667a38.4 38.4 0 0 1 38.4-38.4h298.666667a38.4 38.4 0 1 1 0 76.8h-298.666667a38.4 38.4 0 0 1-38.4-38.4z m-109.226667 11.946666a38.4 38.4 0 0 1 7.68 53.76l-108.8 145.066667a4.266667 4.266667 0 0 0 0 5.12l108.8 145.066667a38.4 38.4 0 0 1-61.44 46.08l-108.8-145.066667a81.066667 81.066667 0 0 1 0-97.28l108.8-145.066667a38.4 38.4 0 0 1 53.76-7.68zM430.933333 512a38.4 38.4 0 0 1 38.4-38.4h341.333334a38.4 38.4 0 1 1 0 76.8h-341.333334a38.4 38.4 0 0 1-38.4-38.4z m42.666667 213.333333a38.4 38.4 0 0 1 38.4-38.4h298.666667a38.4 38.4 0 1 1 0 76.8h-298.666667a38.4 38.4 0 0 1-38.4-38.4z" p-id="2266"></path></svg>