<?xml version="1.0" standalone="no"?><!DOCTYPE svg PUBLIC "-//W3C//DTD SVG 1.1//EN" "http://www.w3.org/Graphics/SVG/1.1/DTD/svg11.dtd"><svg t="1585423696667" class="icon" viewBox="0 0 1024 1024" version="1.1" xmlns="http://www.w3.org/2000/svg" p-id="20266" xmlns:xlink="http://www.w3.org/1999/xlink" width="200" height="200"><defs><style type="text/css"></style></defs><path d="M568.96 853.76c-8.32 0-16.64-3.2-22.4-9.6-12.8-12.8-12.8-32.64 0-45.44l213.12-213.12c10.88-10.88 16.64-25.6 16.64-40.96s-5.76-30.08-16.64-40.96L546.56 291.84c-12.8-12.8-12.8-32.64 0-45.44s32.64-12.8 45.44 0l213.12 213.12c23.04 23.04 35.84 53.76 35.84 86.4s-12.8 63.36-35.84 86.4l-213.12 213.12c-6.4 5.12-14.72 8.32-23.04 8.32z" fill="#515151" p-id="20267"></path><path d="M293.12 853.76c-8.32 0-16.64-3.2-22.4-9.6-12.8-12.8-12.8-32.64 0-45.44l213.12-213.12c22.4-22.4 22.4-59.52 0-81.92L270.72 291.84c-12.8-12.8-12.8-32.64 0-45.44s32.64-12.8 45.44 0l213.12 213.12c47.36 47.36 47.36 124.8 0 172.16L316.16 844.8c-6.4 5.76-14.72 8.96-23.04 8.96z" fill="#515151" p-id="20268"></path></svg>