<?xml version="1.0" standalone="no"?><!DOCTYPE svg PUBLIC "-//W3C//DTD SVG 1.1//EN" "http://www.w3.org/Graphics/SVG/1.1/DTD/svg11.dtd"><svg t="1585423811148" class="icon" viewBox="0 0 1024 1024" version="1.1" xmlns="http://www.w3.org/2000/svg" p-id="23745" xmlns:xlink="http://www.w3.org/1999/xlink" width="200" height="200"><defs><style type="text/css"></style></defs><path d="M512 64C264.533333 64 64 264.533333 64 512s200.533333 448 448 448 448-200.533333 448-448S759.466667 64 512 64z m0 853.33333301C288 917.333333 106.666667 736 106.66666699 512S288 106.666667 512 106.66666699s405.333333 181.33333299 405.33333301 405.33333301-181.33333299 405.333333-405.33333301 405.33333301z" fill="#666666" p-id="23746"></path><path d="M448 277.333333c-8.533333-8.533333-21.333333-8.533333-29.866667 0s-8.533333 21.333333 0 29.866667l204.79999999 204.8-204.79999999 204.8c-8.533333 8.533333-8.533333 21.333333 0 29.866667 4.266667 4.266667 10.666667 6.4 14.933334 6.4s10.666667-2.133333 14.933333-6.4l219.733333-219.733334c8.533333-8.533333 8.533333-21.333333 0-29.866666L448 277.333333z" fill="#666666" p-id="23747"></path></svg>