<?xml version="1.0" standalone="no"?><!DOCTYPE svg PUBLIC "-//W3C//DTD SVG 1.1//EN" "http://www.w3.org/Graphics/SVG/1.1/DTD/svg11.dtd"><svg t="1585423307201" class="icon" viewBox="0 0 1024 1024" version="1.1" xmlns="http://www.w3.org/2000/svg" p-id="15874" xmlns:xlink="http://www.w3.org/1999/xlink" width="200" height="200"><defs><style type="text/css"></style></defs><path d="M484 540H64v-56h0.86C78.744 258.88 258.88 78.743 484 64.86V64h56v0.86C765.12 78.744 945.257 258.88 959.14 484h0.86v56H484z m56 420h-56 56z m-56-545.097c-46.157-3.633-89.81-16.169-129.244-35.891-5.591 33.467-9.099 68.713-10.295 104.988H484v-69.097z m56 0V484h139.54c-1.197-36.275-4.705-71.52-10.296-104.988-39.433 19.722-83.087 32.258-129.244 35.89z m0-277.876v221.659a295.154 295.154 0 0 0 117.268-36.717c-9.615-37.579-22.07-71.921-36.964-101.709-18.824-37.647-39.803-64.813-60.84-81.293a377.502 377.502 0 0 0-19.464-1.94z m-56 0a377.502 377.502 0 0 0-19.465 1.94c-21.036 16.48-42.015 43.646-60.839 81.293-14.895 29.79-27.35 64.134-36.965 101.715A295.066 295.066 0 0 0 484 358.686v-221.66zM735.57 484h151.403c-6.03-81.915-38.304-156.535-88.448-215.485a354.025 354.025 0 0 1-78.074 79.155c8.409 42.633 13.643 88.464 15.119 136.33z m-598.543 0H288.43c1.476-47.866 6.71-93.697 15.12-136.33a354.025 354.025 0 0 1-78.075-79.155c-50.144 58.95-82.418 133.57-88.448 215.485z m515.528-320.849c21.384 34.507 39.53 76.718 53.384 124.525a296.602 296.602 0 0 0 52.517-59.647c-31.212-27.113-66.939-49.164-105.901-64.878z m-281.11 0c-38.96 15.713-74.684 37.762-105.895 64.872a297.004 297.004 0 0 0 52.512 59.65c13.854-47.805 32-90.015 53.383-124.522zM71.488 594H326v86H96.565a444.656 444.656 0 0 1-25.077-86z m51.296 140H326v86H186.668a449.546 449.546 0 0 1-63.884-86z m125.232 140H326v45.683A447.635 447.635 0 0 1 248.016 874zM643 940.543C601.563 953.194 557.577 960 512 960s-89.563-6.806-131-19.457V874h262v66.543zM952.512 594a444.653 444.653 0 0 1-25.077 86H698v-86h254.512z m-51.296 140a449.546 449.546 0 0 1-63.884 86H698v-86h203.216zM775.984 874A447.635 447.635 0 0 1 698 919.683V874h77.984zM381 594h262v86H381v-86z m0 140h262v86H381v-86z" p-id="15875"></path></svg>