<?xml version="1.0" standalone="no"?><!DOCTYPE svg PUBLIC "-//W3C//DTD SVG 1.1//EN" "http://www.w3.org/Graphics/SVG/1.1/DTD/svg11.dtd"><svg t="1587289540913" class="icon" viewBox="0 0 1024 1024" version="1.1" xmlns="http://www.w3.org/2000/svg" p-id="3905" xmlns:xlink="http://www.w3.org/1999/xlink" width="200" height="200"><defs><style type="text/css"></style></defs><path d="M961.628587 696.298667a191.146667 191.146667 0 0 0-196.992-46.144l-134.976-135.04 134.954666-134.954667a191.573333 191.573333 0 0 0 61.397334 10.026667 190.506667 190.506667 0 0 0 135.594666-56.170667c55.786667-55.808 71.488-135.296 40.938667-207.488a21.290667 21.290667 0 0 0-35.008-6.485333l-75.328 78.272H832.135253V131.669333l75.477334-75.434666a21.333333 21.333333 0 0 0-6.784-34.730667 191.36 191.36 0 0 0-75.050667-15.189333c-51.242667 0-99.413333 19.925333-135.637333 56.149333a191.210667 191.210667 0 0 0-46.208 196.992l-134.976 134.997333-134.976-134.997333a191.104 191.104 0 0 0-46.165334-196.992C271.98592 6.656 192.49792-9.045333 120.348587 21.504a21.290667 21.290667 0 0 0-6.485334 35.008L192.135253 131.904v66.389333H125.703253L50.332587 120.021333a21.269333 21.269333 0 0 0-35.008 6.485334 189.866667 189.866667 0 0 0 40.981333 209.066666c51.733333 51.818667 127.765333 68.928 197.013333 45.376l134.741334 134.421334-134.741334 134.762666a191.573333 191.573333 0 0 0-61.397333-10.005333c-51.242667 0-99.413333 19.946667-135.594667 56.170667a191.296 191.296 0 0 0-40.981333 210.666666 21.290667 21.290667 0 0 0 34.709333 6.784l75.413334-75.413333H192.135253v60.074667l-78.272 75.392a21.269333 21.269333 0 0 0 6.485334 35.008A190.165333 190.165333 0 0 0 194.92992 1024c50.474667 0 98.24-19.946667 134.442667-56.170667 51.498667-51.456 68.288-127.424 44.608-197.013333l134.976-134.976 134.997333 135.04a191.104 191.104 0 0 0 46.165333 196.992 191.146667 191.146667 0 0 0 135.424 56.277333 192.64 192.64 0 0 0 75.285334-15.36 21.333333 21.333333 0 0 0 6.784-34.730666L832.135253 898.688v-60.373333h60.352l75.413334 75.434666a21.312 21.312 0 0 0 34.709333-6.784 191.296 191.296 0 0 0-40.981333-210.666666zM273.692587 340.992a21.333333 21.333333 0 0 0-23.381334-4.544c-56.725333 24.042667-120.981333 11.797333-163.861333-31.061333a147.413333 147.413333 0 0 1-41.472-129.408l56.277333 58.453333c4.032 4.181333 9.6 6.549333 15.381334 6.549333H213.468587a21.333333 21.333333 0 0 0 21.333333-21.333333V122.816c0-5.802667-2.346667-11.328-6.528-15.381333L169.756587 51.072c46.122667-8.064 92.970667 6.613333 127.893333 41.557333a148.693333 148.693333 0 0 1 31.850667 163.84 21.333333 21.333333 0 0 0 4.565333 23.402667l144.725333 144.746667-60.565333 60.565333-144.533333-144.192z m55.786666 432.810667c24.149333 57.045333 12.266667 121.344-30.272 163.84a148.266667 148.266667 0 0 1-129.429333 41.536l58.474667-56.32a21.205333 21.205333 0 0 0 6.549333-15.36v-90.496a21.333333 21.333333 0 0 0-21.333333-21.333334H116.615253a21.269333 21.269333 0 0 0-15.082666 6.250667l-56.469334 56.490667a148.714667 148.714667 0 0 1 41.408-131.925334 148.053333 148.053333 0 0 1 105.429334-43.669333c20.224 0 39.872 3.968 58.410666 11.818667 7.978667 3.370667 17.237333 1.578667 23.402667-4.565334l410.112-410.154666a21.333333 21.333333 0 0 0 4.565333-23.402667 148.885333 148.885333 0 0 1 31.893334-163.861333 148.266667 148.266667 0 0 1 105.472-43.648c8.938667 0 17.749333 0.768 26.410666 2.304L795.719253 107.733333a21.333333 21.333333 0 0 0-6.250666 15.082667v96.832a21.333333 21.333333 0 0 0 21.333333 21.333333h90.474667a21.333333 21.333333 0 0 0 15.381333-6.549333l56.32-58.517333c8.064 46.144-6.592 92.992-41.514667 127.914666a148.117333 148.117333 0 0 1-105.429333 43.669334 149.056 149.056 0 0 1-58.410667-11.84 21.376 21.376 0 0 0-23.402666 4.565333L334.044587 750.4a21.333333 21.333333 0 0 0-4.565334 23.402667z m643.392 84.608l-56.490666-56.490667a21.269333 21.269333 0 0 0-15.082667-6.250667H810.80192a21.333333 21.333333 0 0 0-21.333333 21.333334v90.538666c0 5.653333 2.24 11.093333 6.250666 15.104l56.512 56.448a148.906667 148.906667 0 0 1-131.946666-41.365333 148.821333 148.821333 0 0 1-31.850667-163.861333 21.333333 21.333333 0 0 0-4.565333-23.402667l-144.746667-144.789333 60.373333-60.394667 144.725334 144.789333c6.144 6.144 15.424 7.936 23.402666 4.565334a148.842667 148.842667 0 0 1 163.861334 31.850666 148.693333 148.693333 0 0 1 41.386666 131.925334z" fill="#231F20" p-id="3906"></path></svg>