<?xml version="1.0" standalone="no"?><!DOCTYPE svg PUBLIC "-//W3C//DTD SVG 1.1//EN" "http://www.w3.org/Graphics/SVG/1.1/DTD/svg11.dtd"><svg t="1586180260139" class="icon" viewBox="0 0 1024 1024" version="1.1" xmlns="http://www.w3.org/2000/svg" p-id="2157" xmlns:xlink="http://www.w3.org/1999/xlink" width="200" height="200"><defs><style type="text/css"></style></defs><path d="M365.6704 647.296C328.1664 694.826667 270.045867 725.333333 204.8 725.333333 91.690667 725.333333 0 633.642667 0 520.533333s91.690667-204.8 204.8-204.8c65.5872 0 123.972267 30.830933 161.450667 78.779734l235.127466-139.605334A214.382933 214.382933 0 0 1 597.333333 213.333333C597.333333 95.5136 692.846933 0 810.666667 0s213.333333 95.5136 213.333333 213.333333-95.5136 213.333333-213.333333 213.333334c-72.925867 0-137.301333-36.590933-175.778134-92.416L403.694933 471.534933C407.552 487.227733 409.6 503.637333 409.6 520.533333c0 17.117867-2.0992 33.749333-6.058667 49.646934l227.8656 147.003733C666.743467 665.437867 726.212267 631.466667 793.6 631.466667c108.398933 0 196.266667 87.867733 196.266667 196.266666s-87.867733 196.266667-196.266667 196.266667-196.266667-87.867733-196.266667-196.266667c0-10.043733 0.750933-19.9168 2.210134-29.550933L365.6704 647.296zM204.8 640c65.979733 0 119.466667-53.486933 119.466667-119.466667s-53.486933-119.466667-119.466667-119.466666-119.466667 53.486933-119.466667 119.466666 53.486933 119.466667 119.466667 119.466667z m588.8 298.666667c61.269333 0 110.933333-49.664 110.933333-110.933334s-49.664-110.933333-110.933333-110.933333-110.933333 49.664-110.933333 110.933333 49.664 110.933333 110.933333 110.933334z m17.066667-597.333334c70.690133 0 128-57.309867 128-128 0-70.690133-57.309867-128-128-128-70.690133 0-128 57.309867-128 128 0 70.690133 57.309867 128 128 128z" fill="#13227a" p-id="2158"></path></svg>